<svg width="264" height="36" viewBox="0 0 264 36" fill="none" xmlns="http://www.w3.org/2000/svg">
    <path class="id-1" d="M23 6H0.5L4 0.5H31.5L19 27.5H13L23 6Z" fill="#092147"/>
    <path class="id-1" d="M19.5 8.5H14L1 35.5H29L32.5 29.5H9.5L19.5 8.5Z" fill="#092147"/>
    <path class="id-2" d="M49.5 0.5H45V35.5H49.5V0.5Z" fill="#092147"/>
    <path class="id-3" d="M62.5 35.5V0H92.5V6H67.5V15H84.5V21H67.5V35.5H62.5Z" fill="#092147"/>
    <path class="id-4" d="M105 35.5V0H135V6H110V15H127V21H110V35.5H105Z" fill="#092147"/>
    <path class="id-5" d="M152.5 0.5H147.5V35.5H177V30H152.5V0.5Z" fill="#092147"/>
    <path class="id-6" d="M189.5 35.5V0.5H220V6H195V15H213.5V21H195V29.5H221.5V35.5H189.5Z" fill="#092147"/>
    <path class="id-7" fill-rule="evenodd" clip-rule="evenodd" d="M233.5 0.5V35.5H238V23H250L258 35.5H263.5L255.5 21.5L258 20C258 20 260.5 16 260.5 11C260.5 6 259.5 5 259.5 5C257.438 1.91047 255.998 0.967758 253 0.5H233.5ZM238 17V6.5H253C253 6.5 255.5 7.5 256 9.5C256.5 11.5 256.5 12.5 256 14C255.5 15.5 253 17 253 17H238Z" fill="#092147"/>
</svg>
