<svg xmlns="http://www.w3.org/2000/svg" width="13" height="13" viewBox="0 0 13 13">
  <metadata><?xpacket begin="﻿" id="W5M0MpCehiHzreSzNTczkc9d"?>
<x:xmpmeta xmlns:x="adobe:ns:meta/" x:xmptk="Adobe XMP Core 5.6-c138 79.159824, 2016/09/14-01:09:01        ">
   <rdf:RDF xmlns:rdf="http://www.w3.org/1999/02/22-rdf-syntax-ns#">
      <rdf:Description rdf:about=""/>
   </rdf:RDF>
</x:xmpmeta>
                                                                                                    
                                                                                                    
                                                                                                    
                                                                                                    
                                                                                                    
                                                                                                    
                                                                                                    
                                                                                                    
                                                                                                    
                                                                                                    
                                                                                                    
                                                                                                    
                                                                                                    
                                                                                                    
                                                                                                    
                                                                                                    
                                                                                                    
                                                                                                    
                                                                                                    
                                                                                                    
                           
<?xpacket end="w"?></metadata>
<defs>
    <style>
      .cls-1 {
        fill-rule: evenodd;
      }
    </style>
  </defs>
  <path id="Forma_1_копия" data-name="Forma 1 копия" class="cls-1" d="M371.477,1855.02h-0.61V1854h-1.015v1.02h-6.7V1854h-1.015v1.02h-0.61a1.522,1.522,0,0,0-1.523,1.52v8.94a1.522,1.522,0,0,0,1.523,1.52h9.954a1.522,1.522,0,0,0,1.523-1.52v-8.94A1.522,1.522,0,0,0,371.477,1855.02Zm0.507,10.46a0.5,0.5,0,0,1-.507.5h-9.954a0.5,0.5,0,0,1-.507-0.5v-6.71h10.968v6.71Zm0-7.72H361.016v-1.22a0.51,0.51,0,0,1,.507-0.51h0.61v1.02h1.015v-1.02h6.7v1.02h1.015v-1.02h0.61a0.51,0.51,0,0,1,.507.51v1.22Zm-10.054,2.08h1.015v1.01H361.93v-1.01Zm2.031,0h1.016v1.01h-1.016v-1.01Zm2.031,0h1.016v1.01h-1.016v-1.01Zm2.031,0h1.016v1.01h-1.016v-1.01Zm2.032,0h1.015v1.01h-1.015v-1.01Zm-8.125,2.03h1.015v1.02H361.93v-1.02Zm2.031,0h1.016v1.02h-1.016v-1.02Zm2.031,0h1.016v1.02h-1.016v-1.02Zm2.031,0h1.016v1.02h-1.016v-1.02Zm-6.093,2.03h1.015v1.02H361.93v-1.02Zm2.031,0h1.016v1.02h-1.016v-1.02Zm2.031,0h1.016v1.02h-1.016v-1.02Zm2.031,0h1.016v1.02h-1.016v-1.02Zm2.032-2.03h1.015v1.02h-1.015v-1.02Z" transform="translate(-360 -1854)"/>
</svg>
