<svg width="16" height="16" viewBox="0 0 16 16" fill="none" xmlns="http://www.w3.org/2000/svg">
<path d="M15.5416 7.81486C15.2869 7.81486 15.0832 8.0186 15.0832 8.27326V12.443C15.0832 13.5772 14.1596 14.4974 13.0289 14.4974H2.97114C1.83701 14.4974 0.916808 13.5738 0.916808 12.443V8.20535C0.916808 7.95068 0.713073 7.74695 0.458404 7.74695C0.203735 7.74695 0 7.95068 0 8.20535V12.443C0 14.0831 1.33447 15.4142 2.97114 15.4142H13.0289C14.6689 15.4142 16 14.0797 16 12.443V8.27326C16 8.02199 15.7963 7.81486 15.5416 7.81486Z" fill="#4C577A"/>
<path d="M7.67739 11.7741C7.76568 11.8624 7.88452 11.91 7.99997 11.91C8.11542 11.91 8.23427 11.8658 8.32255 11.7741L11.236 8.86074C11.4159 8.68077 11.4159 8.39215 11.236 8.21218C11.056 8.03221 10.7674 8.03221 10.5874 8.21218L8.45838 10.3446V1.0441C8.45838 0.789429 8.25464 0.585693 7.99997 0.585693C7.7453 0.585693 7.54157 0.789429 7.54157 1.0441V10.3446L5.40914 8.21218C5.22918 8.03221 4.94055 8.03221 4.76058 8.21218C4.58062 8.39215 4.58062 8.68077 4.76058 8.86074L7.67739 11.7741Z" fill="#4C577A"/>
</svg>
