<svg width="20" height="20" viewBox="0 0 20 20" fill="none" xmlns="http://www.w3.org/2000/svg">
<path d="M14.9991 0.00428336L12.4055 0.00012207C9.49185 0.00012207 7.60886 1.932 7.60886 4.9221V7.19146H5.00119C4.77586 7.19146 4.59338 7.37414 4.59338 7.59947V10.8875C4.59338 11.1129 4.77607 11.2953 5.00119 11.2953H7.60886V19.5921C7.60886 19.8174 7.79134 19.9999 8.01667 19.9999H11.4189C11.6442 19.9999 11.8267 19.8172 11.8267 19.5921V11.2953H14.8757C15.101 11.2953 15.2835 11.1129 15.2835 10.8875L15.2847 7.59947C15.2847 7.49128 15.2417 7.38766 15.1653 7.3111C15.089 7.23453 14.9849 7.19146 14.8767 7.19146H11.8267V5.26769C11.8267 4.34305 12.0471 3.87366 13.2515 3.87366L14.9987 3.87304C15.2238 3.87304 15.4063 3.69036 15.4063 3.46523V0.41209C15.4063 0.187172 15.224 0.00469949 14.9991 0.00428336Z" fill="#333333"/>
</svg>
