<svg width="20" height="20" viewBox="0 0 20 20" fill="none" xmlns="http://www.w3.org/2000/svg">
<path d="M14.9992 0.00428336L12.4056 0.00012207C9.49191 0.00012207 7.60892 1.932 7.60892 4.9221V7.19146H5.00125C4.77592 7.19146 4.59344 7.37414 4.59344 7.59947V10.8875C4.59344 11.1129 4.77613 11.2953 5.00125 11.2953H7.60892V19.5921C7.60892 19.8174 7.7914 19.9999 8.01673 19.9999H11.419C11.6443 19.9999 11.8268 19.8172 11.8268 19.5921V11.2953H14.8758C15.1011 11.2953 15.2836 11.1129 15.2836 10.8875L15.2848 7.59947C15.2848 7.49128 15.2418 7.38766 15.1654 7.3111C15.0891 7.23453 14.985 7.19146 14.8768 7.19146H11.8268V5.26769C11.8268 4.34305 12.0472 3.87366 13.2516 3.87366L14.9988 3.87304C15.2239 3.87304 15.4064 3.69036 15.4064 3.46523V0.41209C15.4064 0.187172 15.2241 0.00469949 14.9992 0.00428336Z" fill="white"/>
</svg>
