<?xml version="1.0" encoding="utf-8"?>
<!-- Generator: Adobe Illustrator 19.0.0, SVG Export Plug-In . SVG Version: 6.00 Build 0)  -->
<svg version="1.1" id="Layer_1" xmlns="http://www.w3.org/2000/svg" xmlns:xlink="http://www.w3.org/1999/xlink" x="0px" y="0px"
	 viewBox="-400 266.3 40 64" style="enable-background:new -400 266.3 40 64;" xml:space="preserve">
<style type="text/css">
	.st0{fill:url(#SVGID_1_);}
	.st1{fill:url(#SVGID_2_);}
	.st2{fill:url(#SVGID_3_);}
</style>
<linearGradient id="SVGID_1_" gradientUnits="userSpaceOnUse" x1="-380" y1="267.58" x2="-380" y2="331.5804" gradientTransform="matrix(1 0 0 -1 0 597.8799)">
	<stop  offset="0" style="stop-color:#62A920"/>
	<stop  offset="1" style="stop-color:#2C6D42"/>
</linearGradient>
<path class="st0" d="M-380,297.3c-2.9,0-5.6-1.1-7.6-3.2c-2.1-2-3.2-4.8-3.2-7.6c-0.1-2.9,1.1-5.7,3.2-7.7c2-2.1,4.8-3.2,7.6-3.1
	c2.9,0,5.6,1.1,7.6,3.2c2.1,2,3.2,4.8,3.2,7.7c0,2.9-1.1,5.6-3.2,7.6C-374.4,296.2-377.1,297.3-380,297.3z M-380,266.3
	c-2.7,0-5.3,0.5-7.8,1.6c-2.4,1-4.5,2.5-6.4,4.3c-3.8,3.8-5.9,8.9-5.9,14.2c0.1,5.1,1.1,10.2,3.1,14.9c1.9,4.9,4.2,9.7,6.9,14.2
	c2.1,3.7,4.4,7.2,6.9,10.7l3.1,4.2l3.1-4.2c2.5-3.4,4.8-7,6.9-10.7c2.6-4.6,4.9-9.3,6.9-14.2c2-4.7,3-9.8,3.1-14.9
	c0-5.3-2.1-10.4-5.9-14.2c-1.8-1.8-4-3.3-6.4-4.3C-374.7,266.8-377.3,266.3-380,266.3z"/>
<linearGradient id="SVGID_2_" gradientUnits="userSpaceOnUse" x1="-380.1" y1="297.62" x2="-380.1" y2="325.2" gradientTransform="matrix(1 0 0 -1 0 597.8799)">
	<stop  offset="0" style="stop-color:#A6C492"/>
	<stop  offset="1" style="stop-color:#FFFFFF"/>
</linearGradient>
<circle class="st1" cx="-380.1" cy="286.5" r="13.8"/>
<linearGradient id="SVGID_3_" gradientUnits="userSpaceOnUse" x1="-1180.09" y1="832.4" x2="-1180.09" y2="850.4" gradientTransform="matrix(-1 0 0 1 -1560.1899 -554.9301)">
	<stop  offset="0" style="stop-color:#A6C492"/>
	<stop  offset="1" style="stop-color:#FFFFFF"/>
</linearGradient>
<circle class="st2" cx="-380.1" cy="286.5" r="9"/>
</svg>
