<svg width="100" height="100" viewBox="0 0 100 100" fill="none" xmlns="http://www.w3.org/2000/svg">
<path d="M54.72 37.76H43.3919V26.4319C43.3919 25.3898 42.5461 24.5439 41.5039 24.5439C40.4618 24.5439 39.6159 25.3898 39.6159 26.4319V37.76H28.2879C27.2457 37.76 26.3999 38.6058 26.3999 39.648C26.3999 40.6902 27.2457 41.536 28.2879 41.536H39.6159V52.864C39.6159 53.9062 40.4618 54.752 41.5039 54.752C42.5461 54.752 43.3919 53.9062 43.3919 52.864V41.536H54.72C55.7621 41.536 56.608 40.6902 56.608 39.648C56.608 38.6058 55.7621 37.76 54.72 37.76Z" fill="#333333"/>
<path d="M97.6174 96.8036L69.5636 67.6283C76.7191 60.452 81.1521 50.5588 81.1521 39.6481C81.1521 17.785 63.3671 0 41.504 0C19.641 0 1.85596 17.785 1.85596 39.6481C1.85596 61.5112 19.641 79.2962 41.504 79.2962C51.1008 79.2962 59.9083 75.8656 66.7731 70.1733L94.8949 99.4204C95.265 99.8074 95.7596 100 96.2562 100C96.7282 100 97.1983 99.8244 97.5645 99.4732C98.316 98.7501 98.3386 97.555 97.6174 96.8036ZM5.63196 39.6481C5.63196 19.8675 21.7234 3.77601 41.504 3.77601C61.2847 3.77601 77.3761 19.8675 77.3761 39.6481C77.3761 59.4287 61.2847 75.5201 41.504 75.5201C21.7234 75.5201 5.63196 59.4287 5.63196 39.6481Z" fill="#333333"/>
</svg>
